<?xml version="1.0" encoding="UTF-8"?>
<svg width="428px" height="80px" viewBox="0 0 428 80" version="1.1" xmlns="http://www.w3.org/2000/svg" xmlns:xlink="http://www.w3.org/1999/xlink">
    <title>Artboard</title>
    <g id="Artboard" stroke="none" stroke-width="1" fill="none" fill-rule="evenodd">
        <g id="Logo">
            <g id="Logo/Text" transform="translate(106.583658, 16.666667)" fill="#23323F">
                <path d="M143.133636,7.20588235 C147.151121,7.20588235 149.546953,7.96011266 151.438882,9.78662219 C153.330811,11.6131317 153.990466,13.8758226 153.990466,17.9650231 L153.990466,25.1347545 C153.990466,29.223955 153.285001,31.5457121 151.438882,33.3131554 C149.592763,35.0805987 147.151121,35.8984388 143.133636,35.8984388 L130.861294,35.8984388 L130.861294,46.6666667 L125.052661,46.6666667 L125.052661,7.20588235 L143.133636,7.20588235 Z M321.416342,0 L321.416342,5.39575304 L306.235524,5.39575304 L306.235524,36.0294118 L300.434054,36.0294118 L300.434054,5.39575304 L285.244085,5.39575304 L285.244085,0 L321.416342,0 Z M280.765615,0 L280.765615,36.0294118 L274.909155,36.0294118 L274.909155,0 L280.765615,0 Z M251.483312,7.20588235 L251.483312,36.0294118 L233.405199,36.0202861 C229.388349,36.0202861 226.992896,35.2628528 225.096687,33.4240239 C223.200477,31.5851949 222.545506,29.317458 222.545506,25.2108922 L222.545506,18.0107134 C222.545506,13.9041475 223.25544,11.5770936 225.096687,9.79758169 C226.937933,8.01806982 229.388349,7.20588235 233.405199,7.20588235 L251.483312,7.20588235 Z M204.012108,0 L204.012108,7.24326104 L216.970546,7.24326104 L216.269105,12.6449378 L204.012108,12.6449378 L204.012108,25.2306167 C204.012108,29.7707602 205.200914,30.7416945 210.493604,30.6368518 L210.493604,30.6368518 L218.756032,30.6368518 L218.756032,36.0294118 L209.03151,36.0294118 C205.03694,36.0294118 202.609226,35.2089039 200.773637,33.4356953 C198.938048,31.6624866 198.236607,29.333156 198.236607,25.2306167 L198.236607,25.2306167 L198.236607,12.6449378 L194.296696,12.6449378 L194.296696,7.24326104 L198.236607,7.24326104 L198.236607,0 L204.012108,0 Z M178.640115,7.20588235 C182.647318,7.20588235 185.08728,7.96355549 186.928674,9.74819524 C188.770069,11.532835 189.473728,13.7510829 189.473728,18.0232639 L189.473728,23.4273904 L165.645263,23.4273904 L165.645263,24.2946067 C165.645263,27.6493643 165.860016,28.785874 166.728167,29.7032975 C167.596319,30.620721 168.619823,30.7850356 172.142689,30.7850356 L177.168828,30.7850356 C180.636863,30.7850356 181.664937,30.5705137 182.587919,29.7032975 C183.236747,29.109939 183.501762,28.2974943 183.666254,26.8369196 L189.473728,27.5352569 C188.495916,33.7016208 185.571617,36.0294118 178.640115,36.0294118 L170.68054,36.0294118 C166.673337,36.0294118 164.233375,35.2717386 162.39655,33.4323273 C160.559725,31.592916 159.846927,29.2651251 159.846927,25.2165945 L159.846927,18.0141353 C159.846927,13.9062689 160.555156,11.5784779 162.39655,9.7984025 C164.237944,8.01832705 166.673337,7.20588235 170.68054,7.20588235 L178.640115,7.20588235 Z M85.7348576,7.20588235 C90.2192351,7.20588235 92.5388979,8.06826118 94.5942376,10.4500694 C96.5903325,8.06826118 98.9145526,7.20588235 103.39893,7.20588235 L107.017422,7.20588235 C111.014169,7.20588235 113.397634,7.96331561 115.279796,9.79758169 C117.161959,11.6318478 117.818209,13.9041475 117.818209,18.0107134 L117.818209,36.0202861 L112.03956,36.0294118 L112.03956,19.1012348 C112.03956,15.7475393 111.825367,14.6113894 110.959481,13.6942564 C110.148283,12.8820689 109.013517,12.6128607 105.946458,12.6128607 L103.56755,12.6128607 C100.491376,12.6128607 99.3566101,12.8820689 98.5545263,13.6942564 C97.6886404,14.6068266 97.4744476,15.7475393 97.4744476,19.1012348 L97.4744476,36.0294118 L91.6775693,36.0294118 L91.6775693,19.1012348 C91.6775693,15.7475393 91.4588192,14.6113894 90.5974906,13.6942564 C89.736162,12.7771234 88.7062135,12.6128607 85.1925396,12.6128607 L77.0942277,12.6128607 L77.0942277,36.0294118 L71.3110213,36.0294118 L71.3110213,7.20588235 L85.7348576,7.20588235 Z M53.5787636,7.20588235 C57.5841135,7.20588235 59.9727086,7.96379553 61.8589224,9.79922382 C63.7451362,11.6346521 64.4027991,13.9083916 64.4027991,18.0175595 L64.4210676,25.2131689 C64.4210676,29.3223367 63.7177336,31.6554309 61.8771908,33.4315046 C60.0366481,35.2075782 57.6023819,36.0294118 53.597032,36.0294118 L45.6228691,36.0294118 C41.6175192,36.0294118 39.228924,35.2714986 37.3381431,33.4315046 C35.4473623,31.5915105 34.7942664,29.3223367 34.7942664,25.2131689 L34.7942664,18.0175595 C34.7942664,13.9083916 35.4976004,11.5798632 37.3381431,9.79922382 C39.1786859,8.01858443 41.6175192,7.20588235 45.6228691,7.20588235 L53.5787636,7.20588235 Z M18.7960872,7.20588235 C25.8337663,7.20588235 28.8133551,9.58237528 29.6268011,15.8725552 L23.8321407,16.6297488 C23.6676235,15.1153617 23.3979981,14.3034313 22.7490693,13.7104484 C21.835085,12.8437811 20.7977128,12.629395 17.3337123,12.629395 L12.3067986,12.629395 C8.78795906,12.629395 7.75972672,12.8437811 6.89144163,13.7104484 C6.02315654,14.5771157 5.80837023,15.7630815 5.80837023,19.1157154 L5.80837023,24.1332629 C5.80837023,27.4858969 6.02772647,28.6216872 6.89144163,29.5430913 C7.7551568,30.4644955 8.78795906,30.6241447 12.3067986,30.6241447 L17.3337123,30.6241447 C20.7977128,30.6241447 21.8259451,30.4051972 22.7490693,29.5430913 C23.3979981,28.945547 23.6630536,28.138178 23.8321407,26.623791 L29.6268011,27.3627389 C28.8133551,33.6301118 25.8337663,36.0294118 18.7960872,36.0294118 L10.830714,36.0294118 C6.82289281,36.0294118 4.43282386,35.2722182 2.54544628,33.4339713 C0.658068697,31.5957244 0,29.3287052 0,25.2234391 L0,18.0072936 C0,13.9020275 0.703767912,11.57571 2.54544628,9.7967614 C4.38712465,8.01781276 6.82289281,7.20588235 10.830714,7.20588235 L18.7960872,7.20588235 Z M52.4443242,12.6167862 L47.0980436,12.6162867 C43.5768067,12.6162867 42.53094,12.8308765 41.6814587,13.6983675 C40.8602935,14.5369421 40.6152683,15.6656341 40.5998457,18.7712487 L40.5990551,24.131088 C40.5990551,27.4869084 40.8182761,28.6237782 41.6814587,29.5460581 C42.5446413,30.468338 43.5768067,30.6281389 47.0980436,30.6281389 L52.1218575,30.6281389 C55.6385273,30.6281389 56.6661256,30.4089833 57.5338753,29.5460581 C58.401625,28.6831328 58.6162789,27.4869084 58.6162789,24.131088 L58.6162789,19.1087718 C58.6162789,15.7529514 58.401625,14.6160817 57.5338753,13.6983675 C56.6932428,12.8093319 55.7025961,12.6272953 52.4443242,12.6167862 Z M245.671018,12.603735 L234.870868,12.603735 C231.339521,12.603735 230.290652,12.818189 229.443312,13.6851307 C228.595972,14.5520724 228.3578,15.7384136 228.3578,19.0921091 L228.3578,24.1112451 C228.3578,27.4649405 228.573071,28.6010904 229.443312,29.5227863 C230.313553,30.4444822 231.339521,30.604182 234.870868,30.604182 L245.671018,30.604182 L245.671018,12.603735 Z M141.991178,12.5995805 L130.861294,12.5990834 L130.861294,30.5324991 L141.667734,30.523412 C145.195059,30.523412 146.248676,30.3053213 147.09615,29.4465892 C147.915375,28.6164815 148.165275,27.4764377 148.181025,24.3847868 L148.181833,19.0600201 C148.181833,15.7205064 147.966529,14.5891609 147.09615,13.6759062 C146.25297,12.7911906 145.259322,12.6100385 141.991178,12.5995805 Z M177.200812,12.4046155 L172.174674,12.4046155 C166.435737,12.4046155 165.677248,13.1120814 165.677248,18.3382004 L183.698238,18.3382004 C183.698238,13.0938242 182.939748,12.4046155 177.200812,12.4046155 Z" id="Text"></path>
            </g>
            <g id="Visual">
                <path d="M56.3637857,72.879111 C51.8944659,82.7532899 39.7698493,82.2509458 36.0900531,72.0411198 C35.896341,71.5057366 35.7261091,70.76461 35.5705525,70.2179634 C34.8756837,70.106832 34.1815486,69.9987041 33.4910824,69.8913271 C32.8013499,69.7854519 32.1130849,69.6818293 31.4299563,69.5774559 C30.7460938,69.476086 30.069569,69.3739652 29.3923104,69.2771006 C28.7187206,69.180236 28.0480658,69.0841224 27.3825473,68.9932649 C23.6550569,80.5922339 14.017146,75.6386249 10.6719434,68.2115904 C9.50673575,65.6277843 7.97024657,60.5397663 10.7526568,55.4930472 C9.69164276,52.9047358 8.32685294,49.4281237 7.3744351,46.7962608 C-0.211888508,49.1232631 -2.20697642,36.9160748 2.61528093,28.4392986 C7.24969625,20.4551051 11.9802339,22.7212855 13.5886313,24.3649796 C17.239811,28.101399 16.5001829,36.9438576 12.0426033,43.1184107 C13.0199689,45.8186045 14.3781549,49.3988391 15.4575129,52.0592357 C16.8766008,51.802432 24.1268632,51.0613054 27.3854823,61.7937495 C28.0891562,61.8861087 28.7987002,61.9799697 29.5126467,62.0775852 C30.2265932,62.1752007 30.9478773,62.2758197 31.6691614,62.3771896 C32.3926467,62.4808121 33.1205346,62.5859365 33.8520913,62.6948152 C34.5829142,62.8044449 35.3188735,62.9155763 36.0555665,63.0267078 C41.3239487,51.8467344 53.8279182,55.0597847 56.8245857,63.3901376 C57.9193526,66.4379926 57.7557246,69.8027223 56.3637857,72.879111" id="Bottom-Shape" fill="#E34132"></path>
                <path d="M56.8353594,47.6958568 C56.348891,46.5368804 56.0187088,44.8675915 55.7971198,43.6239411 C54.9768005,43.4704694 54.1557475,43.3177536 53.333227,43.1673059 C52.512174,43.0191263 51.6896534,42.8709467 50.8671329,42.7303272 C50.0431449,42.5859277 49.2206244,42.4453083 48.3995714,42.3092249 C47.5777846,42.1716296 46.7567316,42.0378143 45.9393472,41.9085351 C38.7978734,54.53102 25.7791566,50.1899618 23.6637894,40.432031 C21.1272564,28.742473 33.8297321,18.9618616 42.8062851,25.6896702 C46.2636595,28.2828137 46.9709831,32.1475803 47.3121714,34.0073858 C48.1324907,34.1343969 48.9535437,34.2651881 49.7789992,34.3982474 C50.6015197,34.5335747 51.4255077,34.668902 52.2502294,34.8117895 C53.0742174,34.953921 53.9004066,35.0960524 54.7243946,35.2457441 C55.5476489,35.3924117 56.3701694,35.5458834 57.1941574,35.6993552 C58.2360656,33.7216108 59.1048116,32.6457965 60.7696636,31.2690868 C59.7460988,28.4325054 58.3600674,24.6554369 57.2998157,21.8339759 C56.2219543,21.8596805 46.7295832,21.8037352 45.2635743,12.4260817 C44.5122264,12.3406516 43.762346,12.2590016 43.0161342,12.1826437 C42.2706562,12.1062859 41.5288469,12.0337081 40.79144,11.9656664 C40.0532994,11.8983808 39.3188275,11.8348752 38.5894917,11.7766618 C37.8608897,11.7192044 37.1359564,11.664015 36.4146917,11.6156298 C28.939367,20.9910153 18.496805,20.1397384 17.6368638,14.0621057 C16.540659,6.30081979 29.7266681,-3.01862027 36.2004402,0.942916674 C38.4662237,2.32869859 38.5395975,4.71620501 38.5806869,5.9991684 C39.2659983,6.04074942 39.956446,6.08611053 40.6490948,6.13827581 C41.3432112,6.18968507 42.0424637,6.24563044 42.7431836,6.30611192 C43.4461048,6.36583738 44.1512272,6.43085497 44.8592846,6.50040867 C45.5673419,6.56996237 46.2798017,6.6448082 46.9929953,6.72116607 C48.6710545,4.7524939 50.4041441,3.4528981 52.4226579,2.73619256 C56.9777046,1.17728241 65.297562,2.11323331 67.5743516,9.91307618 C68.4247542,13.3204516 67.1766655,17.0506468 63.9386789,19.6248898 C65.0495585,22.3843574 66.4994251,26.0752397 67.5560081,28.8573878 C76.4232342,28.867972 82.3870583,38.6493394 78.9524298,47.541629 C74.8743129,58.1016954 61.2326524,58.1977097 56.8353594,47.6958568 Z" id="Top-Shape" fill="#0E8DF2"></path>
            </g>
        </g>
    </g>
</svg>