<?xml version="1.0" standalone="no"?>
<!DOCTYPE svg PUBLIC "-//W3C//DTD SVG 20010904//EN"
 "http://www.w3.org/TR/2001/REC-SVG-20010904/DTD/svg10.dtd">
<svg version="1.0" xmlns="http://www.w3.org/2000/svg"
 width="409.000000pt" height="409.000000pt" viewBox="0 0 409.000000 409.000000"
 preserveAspectRatio="xMidYMid meet">
<metadata>
Created by potrace 1.14, written by Peter Selinger 2001-2017
</metadata>
<g transform="translate(0.000000,409.000000) scale(0.100000,-0.100000)"
fill="#000000" stroke="none">
<path d="M12 4078 c-19 -19 -14 -66 10 -90 20 -20 22 -20 35 -3 15 22 17 44 3
79 -10 28 -29 33 -48 14z"/>
<path d="M928 4083 c-33 -5 -38 -34 -8 -54 17 -12 18 -16 5 -33 -12 -16 -17
-17 -30 -6 -8 7 -17 11 -19 9 -50 -66 -56 -77 -50 -108 4 -18 17 -39 30 -48
13 -8 24 -20 24 -27 0 -6 15 -21 34 -33 35 -23 66 -90 66 -144 0 -50 -46 -109
-63 -81 -3 4 0 30 5 59 12 58 5 103 -16 103 -7 0 -24 8 -37 19 -13 10 -43 20
-66 23 l-42 6 -14 -52 c-8 -28 -17 -75 -21 -105 -6 -58 -20 -83 -42 -74 -8 3
-14 1 -14 -5 0 -5 7 -13 16 -16 14 -5 15 -16 10 -66 -8 -72 -3 -86 27 -65 27
19 61 19 77 0 20 -24 38 -17 59 23 11 20 40 54 65 75 l45 38 6 -26 c3 -14 8
-37 11 -52 4 -16 8 -55 11 -88 2 -33 8 -64 13 -69 15 -15 12 -39 -7 -66 -11
-15 -22 -62 -29 -120 -7 -52 -17 -126 -23 -165 -6 -38 -11 -89 -11 -112 0 -40
2 -43 26 -43 32 0 51 19 56 55 3 30 15 40 34 27 11 -7 21 -55 25 -112 l1 -25
8 25 8 25 1 -27 c1 -14 -5 -28 -11 -31 -10 -3 -13 -38 -13 -133 0 -118 3 -136
29 -207 20 -53 32 -74 38 -65 11 17 27 -7 28 -42 1 -14 9 -41 20 -60 l19 -35
1 50 c0 28 4 65 10 84 8 28 6 36 -8 47 -22 17 -49 18 -55 2 -3 -7 -6 0 -6 16
-1 23 2 27 17 21 9 -4 26 -10 37 -13 25 -7 44 -31 45 -57 0 -11 9 -33 19 -49
17 -25 18 -32 6 -50 -19 -29 -24 -116 -7 -116 4 0 16 14 26 30 22 38 33 31 47
-26 6 -24 15 -44 19 -44 5 0 6 9 3 21 -5 17 -2 20 18 17 21 -3 24 1 22 27 -1
17 -7 57 -13 90 -16 83 -7 165 23 218 13 23 27 56 31 72 19 83 39 133 52 128
9 -3 15 10 20 49 7 49 8 51 15 24 11 -40 32 -52 40 -23 3 12 2 31 -2 43 -4 11
-3 27 2 35 7 11 9 8 9 -9 0 -25 25 -55 53 -65 18 -7 18 -3 12 53 -7 56 -6 60
14 60 12 0 21 -6 21 -14 0 -8 5 -18 12 -22 8 -5 9 -2 5 10 -5 13 -3 17 7 13 8
-3 17 -1 20 6 3 7 5 6 5 -3 1 -9 -6 -25 -14 -37 -16 -22 -10 -34 16 -29 44 9
69 19 69 30 0 6 5 4 10 -4 5 -8 10 -32 10 -53 0 -23 4 -36 10 -32 6 3 10 24
10 46 0 38 19 57 21 22 4 -60 3 -58 39 -55 19 1 53 3 75 5 38 2 127 31 151 48
6 5 20 1 33 -7 21 -15 25 -14 61 11 72 50 170 41 170 -16 0 -24 18 -33 35 -19
12 10 15 10 16 -1 0 -8 4 -4 9 8 8 20 12 22 35 11 14 -6 25 -18 25 -27 0 -13
2 -13 9 -2 6 9 11 10 15 3 11 -19 -34 -34 -79 -28 -23 4 -54 2 -68 -3 -17 -7
-27 -7 -27 -1 0 6 -9 1 -20 -10 -11 -11 -26 -20 -32 -21 -71 -6 -88 -5 -78 5
17 17 12 35 -11 29 -11 -3 -18 -11 -15 -18 3 -8 -5 -16 -20 -19 -13 -4 -24
-11 -24 -16 0 -14 -44 -12 -58 2 -9 9 -13 7 -18 -8 -12 -37 -27 -64 -37 -64
-5 0 -4 7 3 15 23 27 1 35 -88 30 -223 -11 -272 -23 -272 -63 0 -8 -5 -10 -12
-6 -8 5 -6 -2 3 -16 9 -14 26 -26 38 -28 30 -5 26 -20 -6 -28 -47 -10 -182
-78 -183 -91 0 -17 25 -16 61 3 31 16 163 23 177 10 4 -4 -1 -12 -11 -17 -28
-16 -19 -29 20 -29 l38 0 -35 -19 c-19 -10 -35 -25 -35 -32 0 -20 62 -12 100
12 64 41 105 89 75 89 -15 0 -12 17 6 35 10 9 25 14 35 12 13 -4 19 0 19 12 0
19 49 95 57 88 2 -3 20 1 38 9 43 18 40 18 65 -8 14 -15 20 -35 20 -64 0 -69
20 -144 56 -210 l34 -63 -31 -31 c-27 -26 -92 -50 -137 -50 -2 0 -2 -9 1 -20
6 -23 -5 -26 -25 -7 -19 19 -41 15 -76 -13 -50 -39 -39 -60 40 -74 45 -8 58
-28 61 -97 l2 -52 -80 -29 c-61 -22 -86 -27 -106 -20 -37 13 -69 -2 -69 -32 0
-14 4 -27 9 -30 9 -6 150 8 194 19 22 6 26 4 21 -8 -5 -15 11 -57 27 -67 13
-9 22 -60 10 -60 -6 0 -11 -9 -11 -20 0 -23 1 -24 35 -8 14 6 25 19 25 30 0
11 7 18 20 18 23 0 26 -10 8 -28 -9 -9 -7 -12 10 -12 12 0 30 -8 41 -19 10
-10 32 -27 50 -37 28 -17 31 -23 31 -70 0 -49 -2 -53 -40 -78 -23 -15 -45 -24
-50 -21 -6 3 -10 2 -10 -4 0 -5 6 -12 13 -14 6 -3 -2 -6 -20 -6 -17 -1 -39 -8
-47 -17 -9 -8 -20 -12 -26 -9 -5 3 -10 -1 -10 -9 0 -13 -13 -16 -66 -16 -41 0
-63 -4 -59 -10 4 -6 -3 -9 -16 -7 -17 2 -22 -4 -24 -28 -3 -26 2 -34 39 -57
24 -16 47 -28 51 -28 12 0 66 -54 80 -81 8 -15 12 -37 9 -50 -3 -13 -8 -34
-11 -46 -4 -18 0 -23 21 -29 15 -3 32 -1 41 6 11 9 20 7 42 -14 28 -26 63 -35
63 -15 0 5 4 7 10 4 5 -3 25 -3 43 0 25 5 36 14 44 36 6 16 18 29 27 29 8 0
22 10 31 23 16 22 16 22 9 -8 l-7 -29 39 41 c21 22 46 50 54 62 8 11 20 21 27
21 7 0 10 6 7 14 -3 9 3 20 15 28 19 11 19 14 4 30 -15 17 -15 20 5 39 12 11
22 27 21 37 0 14 -2 14 -9 -3 -6 -13 -9 -15 -9 -5 -1 8 6 28 14 43 8 16 17 59
20 95 16 188 29 275 55 357 21 67 29 120 34 210 9 155 15 195 31 195 15 0 40
54 31 69 -4 6 0 27 9 47 8 20 15 52 15 72 0 19 12 60 28 91 26 54 27 61 29
243 2 184 -10 289 -32 278 -6 -2 -9 -29 -7 -60 3 -51 3 -54 -12 -35 -8 11 -16
32 -16 48 0 15 -4 27 -10 27 -5 0 -10 13 -10 29 0 24 -4 28 -25 26 -17 -2 -25
2 -25 12 0 9 -6 13 -14 10 -8 -3 -17 -1 -19 6 -3 9 -7 9 -19 0 -16 -14 -38 0
-38 23 0 6 -6 17 -14 23 -8 7 -17 28 -21 49 -4 20 -12 46 -18 57 -6 11 -12 33
-14 50 -3 25 1 22 21 -20 13 -28 27 -67 30 -87 4 -21 11 -40 17 -44 9 -5 6
115 -5 201 -3 22 -34 85 -42 85 -2 0 0 -9 6 -19 16 -30 12 -36 -10 -16 -11 10
-20 14 -20 8 0 -5 9 -18 19 -27 15 -13 20 -14 23 -4 3 7 5 -11 5 -39 l-1 -53
-26 48 c-14 26 -34 59 -44 73 l-18 24 7 -25 c4 -14 12 -31 18 -38 5 -7 7 -15
4 -18 -13 -13 -47 62 -46 101 1 22 3 32 6 23 2 -10 11 -18 19 -18 12 0 12 4 4
21 -20 36 -82 100 -114 116 -17 8 -41 25 -54 36 -19 18 -25 19 -32 7 -6 -9 -3
-18 8 -27 15 -11 15 -12 -5 -13 -17 0 -23 6 -23 23 0 12 -9 28 -20 35 -22 14
-17 37 6 28 9 -3 14 2 14 14 0 24 -13 26 -30 5 -14 -17 -34 -10 -26 10 2 7 -5
16 -17 19 -34 9 -40 7 -27 -9 14 -17 7 -19 -20 -5 -31 16 -37 -10 -8 -35 21
-18 23 -24 13 -38 -15 -21 -29 -22 -21 -2 5 14 -4 19 -31 16 -6 -1 -14 3 -18
9 -3 6 0 7 10 4 11 -5 14 -2 9 10 -3 9 -10 16 -14 16 -5 0 -17 3 -27 7 -16 6
-16 5 -5 -9 7 -9 14 -31 14 -48 1 -17 5 -33 11 -37 5 -3 -1 -12 -14 -20 -23
-13 -23 -14 10 -7 26 5 32 3 26 -7 -18 -31 -39 -49 -59 -50 -17 -1 -18 -2 -3
-6 9 -2 17 -9 17 -14 0 -6 5 -7 12 -3 7 4 8 3 4 -4 -4 -7 -16 -12 -28 -12 -17
0 -18 -2 -8 -15 15 -18 7 -19 -21 -4 -17 9 -21 7 -26 -10 -5 -19 -13 -21 -69
-21 -35 0 -64 -4 -64 -9 0 -5 -7 -12 -16 -15 -9 -4 -2 9 15 29 17 20 31 46 31
58 0 20 -2 18 -19 -9 -21 -35 -88 -90 -97 -81 -4 3 6 17 21 31 15 14 25 30 23
36 -5 17 -78 -58 -78 -79 0 -17 -20 -33 -43 -35 -4 -1 -12 -8 -17 -16 -18 -29
-10 -1 10 32 19 33 19 34 0 34 -10 0 -16 -4 -14 -8 3 -4 -4 -17 -15 -29 -17
-19 -18 -23 -5 -36 17 -18 18 -33 2 -33 -10 0 -9 -3 1 -9 16 -11 6 -49 -20
-74 -18 -17 -19 -17 -19 3 0 11 5 20 10 20 6 0 10 10 10 23 -1 21 -1 22 -15 3
-8 -11 -15 -30 -15 -41 0 -12 -11 -37 -25 -56 -13 -19 -31 -47 -38 -64 -8 -16
-22 -39 -32 -50 -16 -20 -16 -20 -12 1 4 19 2 20 -19 10 -13 -6 -24 -18 -25
-26 -1 -8 -5 -1 -9 15 l-7 30 -8 -32 c-10 -43 -32 -42 -41 2 -7 39 -24 48 -24
12 0 -13 -5 -28 -11 -34 -6 -6 -17 -35 -23 -64 l-12 -53 -13 47 c-8 26 -17 45
-21 42 -4 -2 -3 19 1 47 10 60 4 78 -7 22 -4 -22 -15 -57 -26 -79 l-18 -40 6
40 c5 37 4 39 -10 20 -14 -20 -15 -20 -25 5 -5 14 -10 21 -10 15 -1 -12 -46
-65 -55 -65 -11 0 -7 65 5 77 6 6 9 17 6 25 -3 9 -7 7 -12 -7 -4 -11 -19 -44
-31 -73 -13 -29 -24 -58 -24 -64 0 -9 -3 -9 -11 -1 -8 8 -8 17 0 31 6 11 11
29 11 39 0 15 -3 14 -19 -7 l-19 -25 -7 27 c-4 14 -2 35 4 46 6 11 8 22 5 25
-8 7 31 67 55 83 11 8 21 21 21 29 0 40 52 125 140 232 6 7 10 16 10 21 0 6 9
12 20 15 28 7 36 34 16 56 -20 22 -20 26 0 45 20 20 38 20 59 0 13 -13 19 -14
28 -4 9 10 9 14 -1 17 -8 3 -10 9 -4 16 5 7 12 24 16 39 5 21 14 29 41 34 19
3 33 10 30 14 -13 22 118 88 175 88 8 0 53 1 100 2 l85 2 -1 34 c-1 19 -4 37
-8 41 -3 3 -6 14 -6 24 0 10 -9 21 -20 24 -11 4 -20 15 -20 27 0 14 5 18 16
14 9 -3 18 -6 20 -6 2 0 4 -7 4 -15 0 -20 39 -19 46 0 4 9 3 72 -1 140 l-7
125 -187 0 -188 0 -18 -95 c-10 -53 -21 -98 -25 -100 -4 -3 -18 3 -30 13 -19
16 -21 22 -12 53 5 21 6 44 0 59 -5 14 -7 35 -5 48 4 19 0 22 -27 22 -17 0
-44 -7 -60 -15 -27 -14 -31 -14 -38 0 -5 9 -23 15 -42 15 l-33 0 5 -93 c4 -80
1 -100 -16 -140 l-21 -47 -45 31 c-25 16 -50 27 -56 24 -5 -3 -10 -22 -10 -41
0 -58 -58 -158 -86 -147 -20 7 -18 17 10 50 23 27 23 30 9 68 -8 22 -14 52
-14 67 2 37 -16 44 -44 18 -18 -16 -31 -21 -49 -16 -32 8 -33 29 -4 48 14 10
23 30 28 64 4 27 12 64 18 82 8 24 8 32 -1 31 -7 -1 -24 -4 -39 -6z m849 -80
c4 -28 1 -42 -11 -52 -38 -32 -63 41 -30 88 20 29 34 17 41 -36z m-32 -123 c9
-15 -14 -40 -36 -40 -19 0 -27 29 -12 43 10 11 41 8 48 -3z m-521 -131 c-3 -5
-9 -9 -15 -9 -11 0 -12 43 -2 54 9 9 25 -33 17 -45z m550 15 c9 -22 8 -24 -9
-24 -8 0 -15 9 -15 20 0 24 15 27 24 4z m386 -228 c0 -3 -4 -8 -10 -11 -5 -3
-10 -1 -10 4 0 6 5 11 10 11 6 0 10 -2 10 -4z m-1332 -28 c7 -7 12 -20 12 -31
0 -32 -44 -18 -48 16 -4 29 14 37 36 15z m1623 -56 c21 -24 30 -49 35 -99 4
-29 1 -43 -6 -43 -6 0 -10 6 -7 13 2 6 -2 24 -9 38 -20 41 -42 109 -35 109 4
0 13 -8 22 -18z m-591 -122 c0 -5 -4 -10 -10 -10 -5 0 -10 5 -10 10 0 6 5 10
10 10 6 0 10 -4 10 -10z m114 -4 c-10 -8 -21 -11 -24 -8 -3 4 -9 10 -14 15 -5
4 6 7 24 7 32 0 33 -1 14 -14z m-147 -28 c-3 -8 -6 -5 -6 6 -1 11 2 17 5 13 3
-3 4 -12 1 -19z m-78 -125 c0 -5 -9 -26 -20 -48 -18 -38 -18 -36 -3 28 5 23
25 40 23 20z m-95 -79 c-5 -19 -4 -25 5 -20 12 8 14 -4 5 -28 -3 -9 -10 -13
-16 -10 -5 3 -12 -3 -14 -13 -3 -10 -14 -25 -25 -31 -18 -12 -19 -10 -13 15 6
24 54 113 62 113 1 0 -1 -12 -4 -26z m-247 -166 c-3 -7 -5 -2 -5 12 0 14 2 19
5 13 2 -7 2 -19 0 -25z m-160 -30 c-3 -8 -6 -5 -6 6 -1 11 2 17 5 13 3 -3 4
-12 1 -19z m70 -20 c-3 -8 -6 -5 -6 6 -1 11 2 17 5 13 3 -3 4 -12 1 -19z m13
-74 c0 -49 -2 -54 -15 -40 -17 17 -19 49 -5 77 16 30 20 23 20 -37z m407 24
c-3 -8 -6 -5 -6 6 -1 11 2 17 5 13 3 -3 4 -12 1 -19z m53 -46 c0 -4 -9 -13
-21 -20 -19 -12 -19 -11 -9 8 10 19 30 28 30 12z m827 -112 c7 -29 7 -40 -1
-40 -22 0 -36 16 -42 48 -6 27 -4 32 13 32 14 0 22 -11 30 -40z m70 -147 c-3
-10 -5 -4 -5 12 0 17 2 24 5 18 2 -7 2 -21 0 -30z m38 -163 c1 -41 0 -57 -2
-35 -2 22 -9 45 -15 52 -5 7 -6 18 -2 24 4 7 3 10 -2 7 -5 -4 -10 17 -11 45
l-1 52 15 -35 c9 -19 17 -69 18 -110z m-45 -10 c0 -16 -4 -30 -9 -30 -5 0 -7
9 -4 20 3 12 0 20 -6 20 -7 0 -9 5 -6 10 12 20 25 9 25 -20z m-42 -32 c2 -19
-4 -27 -30 -38 -25 -12 -35 -24 -43 -55 -5 -22 -18 -51 -27 -65 -10 -13 -18
-30 -18 -37 0 -7 -7 -13 -15 -13 -8 0 -19 -9 -25 -20 -16 -30 -40 -25 -40 9 0
20 -6 30 -20 34 -11 3 -21 17 -25 33 -3 16 -9 46 -14 68 -7 32 -6 41 10 57 10
10 22 19 27 20 59 4 87 11 94 21 4 7 8 9 8 5 0 -4 8 -4 17 2 9 5 35 8 58 6 34
-2 40 -7 43 -27z m69 10 c-3 -8 -6 -5 -6 6 -1 11 2 17 5 13 3 -3 4 -12 1 -19z
m3 -32 c0 -2 -7 -6 -15 -10 -8 -3 -15 -1 -15 4 0 6 7 10 15 10 8 0 15 -2 15
-4z m-490 -526 c0 -5 -7 -10 -15 -10 -8 0 -15 -9 -15 -20 0 -11 -5 -20 -11
-20 -6 0 -8 7 -5 16 3 9 6 22 6 30 0 8 9 14 20 14 11 0 20 -4 20 -10z"/>
<path d="M1140 4081 c0 -13 26 -32 33 -24 14 13 6 33 -13 33 -11 0 -20 -4 -20
-9z"/>
<path d="M2022 4023 c3 -59 5 -68 22 -68 17 0 20 8 20 67 1 64 0 68 -22 68
-22 0 -23 -3 -20 -67z"/>
<path d="M2147 4084 c-3 -3 -1 -19 5 -36 9 -26 7 -38 -12 -73 -22 -40 -22 -42
-5 -78 9 -20 14 -45 10 -56 -3 -11 0 -33 8 -48 16 -31 12 -53 -8 -53 -7 0 -16
6 -18 13 -3 7 -6 5 -6 -5 -1 -10 4 -18 9 -18 6 0 10 -7 10 -15 0 -9 9 -15 24
-15 29 0 37 18 40 98 2 31 11 75 20 97 10 23 19 73 20 118 l3 77 -47 0 c-26 0
-49 -3 -53 -6z"/>
<path d="M2468 4083 c7 -3 16 -2 19 1 4 3 -2 6 -13 5 -11 0 -14 -3 -6 -6z"/>
<path d="M2684 4068 c-4 -12 -7 -66 -8 -120 -1 -83 -5 -101 -24 -127 -12 -17
-22 -34 -22 -39 0 -5 -8 -20 -18 -33 -15 -21 -16 -31 -7 -79 7 -32 14 -50 19
-42 9 15 68 16 82 2 8 -8 15 -6 24 4 10 13 9 17 -6 22 -11 3 -26 10 -34 15 -8
5 -25 13 -37 19 -13 5 -23 13 -23 17 1 16 37 51 71 68 19 10 42 27 51 37 11
13 24 18 37 13 15 -5 23 -1 27 12 3 10 13 33 21 52 14 31 14 36 0 46 -11 8
-17 32 -19 83 l-3 72 -62 0 c-55 0 -62 -2 -69 -22z"/>
<path d="M2897 4068 c9 -37 23 -48 52 -41 37 8 37 10 7 38 -35 32 -66 34 -59
3z"/>
<path d="M3810 4081 c0 -18 18 -21 30 -6 10 13 9 15 -9 15 -11 0 -21 -4 -21
-9z"/>
<path d="M3937 4077 c3 -5 -3 -17 -13 -28 -17 -18 -16 -20 6 -44 27 -28 52
-32 70 -10 7 8 18 15 26 15 19 0 54 40 54 63 0 17 -7 18 -74 15 -41 -2 -72 -7
-69 -11z"/>
<path d="M3653 4073 c-23 -9 -14 -33 12 -33 27 0 28 1 19 24 -6 17 -11 18 -31
9z"/>
<path d="M3825 4000 c-15 -17 -16 -24 -7 -46 16 -34 16 -34 -13 -34 -34 0 -34
-35 0 -74 24 -28 24 -30 9 -54 -13 -19 -15 -39 -10 -83 4 -40 1 -68 -9 -93
-21 -49 -35 -45 -37 12 -1 26 -3 56 -4 67 -1 11 -2 25 -3 30 -1 6 -19 16 -41
23 -30 9 -45 9 -65 0 -20 -9 -34 -9 -59 0 -18 7 -40 12 -49 12 -21 0 -37 30
-37 70 0 39 -16 70 -36 70 -20 0 -28 -24 -15 -48 8 -14 7 -29 0 -51 -8 -23 -8
-35 1 -46 16 -19 -4 -55 -31 -55 -20 0 -109 -80 -109 -98 0 -5 7 -15 15 -22
12 -10 18 -10 30 0 9 7 27 10 44 7 17 -4 36 0 47 8 26 20 31 19 46 -10 10 -18
12 -50 7 -115 -4 -50 -9 -94 -13 -97 -3 -3 -15 2 -26 12 -19 17 -22 17 -36 3
-20 -19 -9 -42 16 -35 19 5 40 -28 40 -62 0 -19 -30 -51 -48 -51 -29 0 -62 24
-62 46 0 32 -27 134 -40 149 -11 13 10 37 43 48 22 8 22 20 -4 43 -13 12 -23
15 -27 7 -4 -5 -27 -20 -50 -32 -42 -22 -44 -24 -37 -58 3 -19 11 -43 17 -53
9 -14 6 -23 -15 -44 -33 -32 -34 -52 -6 -82 19 -20 20 -27 11 -51 -28 -68 10
-185 61 -191 33 -4 35 10 3 35 -29 22 -44 88 -22 96 20 8 76 -65 76 -101 0
-40 29 -51 111 -42 52 6 71 12 91 33 29 29 52 27 69 -4 12 -23 37 -24 61 -2
17 15 20 15 43 -7 23 -22 29 -23 59 -12 18 7 47 9 64 6 28 -6 32 -4 32 14 0
14 -15 30 -46 48 -38 23 -49 25 -70 15 -14 -6 -29 -11 -34 -11 -15 0 -12 22 5
34 11 8 13 18 7 41 -12 40 -5 55 24 55 19 0 24 -5 24 -24 0 -19 7 -26 28 -31
17 -3 35 -18 47 -38 27 -47 45 -58 83 -52 39 7 40 1 6 -29 -25 -21 -26 -25
-15 -59 7 -20 10 -41 6 -47 -9 -15 -56 -12 -75 5 -15 14 -18 14 -30 -1 -11
-12 -11 -20 -2 -34 15 -25 -1 -35 -27 -18 -17 11 -26 10 -56 -6 -35 -19 -36
-19 -50 0 -14 19 -11 48 8 72 7 9 6 16 -2 25 -10 9 -16 7 -31 -11 -10 -12 -20
-27 -22 -32 -2 -6 -30 -17 -63 -25 -57 -13 -61 -13 -74 5 -8 12 -25 20 -42 20
-15 0 -31 5 -34 10 -9 15 -45 12 -45 -4 0 -19 16 -29 68 -41 l44 -10 -23 -29
c-12 -15 -42 -36 -66 -47 -26 -11 -51 -31 -61 -48 -27 -48 -67 -49 -73 -1 -3
17 -10 25 -24 25 -15 0 -19 -6 -17 -25 2 -14 2 -36 1 -50 -1 -14 -1 -74 -1
-135 l0 -109 33 -27 c29 -23 32 -31 32 -81 0 -41 -5 -63 -22 -87 -20 -28 -21
-34 -9 -61 7 -17 16 -30 20 -30 5 0 8 -9 8 -20 0 -11 -4 -20 -10 -20 -5 0 -10
-5 -10 -11 0 -17 65 -6 66 11 0 8 4 22 8 31 15 34 13 75 -5 109 -24 44 -25 98
-3 107 9 3 45 -4 80 -16 70 -24 84 -22 84 14 0 32 48 43 84 20 24 -16 26 -16
54 16 27 30 32 32 56 21 15 -7 26 -20 26 -31 0 -25 13 -33 61 -35 31 -2 42 2
54 21 21 31 51 29 68 -3 9 -17 17 -23 21 -15 4 6 16 11 26 11 11 0 35 8 55 17
l35 17 0 334 c0 300 -2 333 -15 322 -11 -9 -19 -10 -27 -2 -14 14 -1 32 23 32
18 0 19 8 19 160 0 88 -4 168 -9 178 -5 9 -12 25 -15 35 -4 13 -12 17 -26 12
-25 -8 -50 10 -50 37 0 17 5 19 26 14 17 -5 35 -1 50 9 21 14 24 23 24 82 0
60 -2 65 -14 48 -12 -16 -16 -17 -30 -6 -24 20 -28 47 -12 85 14 34 14 38 -11
76 -21 31 -33 40 -55 40 -30 0 -35 -9 -17 -27 20 -20 -1 -36 -21 -18 -15 13
-23 14 -39 5 -46 -24 -57 26 -14 60 23 18 25 24 15 38 -7 9 -16 27 -21 39 -14
31 -26 35 -46 13z m-207 -392 c2 -11 -9 -25 -30 -38 -46 -28 -68 -27 -41 3 11
12 23 30 26 40 8 23 40 19 45 -5z m316 -3 c8 -21 -14 -30 -31 -12 -9 8 -12 20
-9 26 8 13 33 4 40 -14z m-265 -125 c66 0 77 -11 44 -42 -28 -25 -51 -32 -147
-45 l-49 -6 6 33 c4 18 16 48 28 66 l21 34 25 -20 c17 -13 41 -20 72 -20z
m128 -144 c3 -3 -4 -14 -15 -26 -17 -18 -23 -19 -48 -8 -39 16 -39 15 -23 34
9 11 23 14 47 10 19 -3 37 -7 39 -10z m-121 -61 c-10 -32 -14 -35 -48 -35 -30
0 -38 4 -38 18 0 20 45 51 76 52 19 0 20 -3 10 -35z m382 5 c2 -14 8 -30 13
-36 12 -14 2 -41 -17 -48 -19 -7 -104 34 -104 51 0 7 7 13 15 13 8 0 22 11 31
26 22 32 58 29 62 -6z m-703 -20 c-3 -5 -11 -10 -16 -10 -6 0 -7 5 -4 10 3 6
11 10 16 10 6 0 7 -4 4 -10z m159 -116 c17 -6 23 -44 7 -44 -5 0 -23 -3 -40
-6 -28 -6 -31 -4 -31 18 0 14 3 28 7 31 8 9 36 9 57 1z m301 -486 c57 -37 55
-81 -4 -93 -53 -10 -88 45 -61 96 14 24 23 24 65 -3z m-295 -68 c-6 -11 -15
-18 -21 -14 -6 4 -6 11 2 20 17 21 31 17 19 -6z m470 -40 c0 -5 -7 -10 -15
-10 -8 0 -15 5 -15 10 0 6 7 10 15 10 8 0 15 -4 15 -10z m-456 -87 c4 -9 3
-20 -2 -25 -11 -11 -45 19 -37 33 10 15 32 10 39 -8z"/>
<path d="M3430 3985 c-16 -19 -5 -47 17 -43 23 4 31 58 10 58 -8 0 -20 -7 -27
-15z"/>
<path d="M3566 3941 c-3 -5 -1 -23 5 -40 10 -27 15 -31 45 -28 19 1 34 5 34
10 0 4 -4 7 -8 7 -4 0 -13 14 -19 30 -11 29 -45 42 -57 21z"/>
<path d="M305 3930 c-3 -5 1 -10 9 -10 9 0 16 5 16 10 0 6 -4 10 -9 10 -6 0
-13 -4 -16 -10z"/>
<path d="M4070 3931 c-8 -6 -18 -7 -22 -5 -4 3 -8 -7 -8 -21 0 -17 5 -25 13
-22 6 2 17 -5 24 -17 11 -19 12 -16 13 27 0 26 -1 47 -2 47 -2 0 -10 -4 -18
-9z"/>
<path d="M191 3914 c0 -11 3 -14 6 -6 3 7 2 16 -1 19 -3 4 -6 -2 -5 -13z"/>
<path d="M461 3921 c-10 -7 -10 -10 -1 -16 6 -4 16 -3 22 3 13 13 -4 23 -21
13z"/>
<path d="M2025 3881 c-6 -10 3 -77 12 -94 2 -4 12 -3 21 2 13 7 18 22 17 53 0
36 -3 43 -22 46 -11 2 -24 -2 -28 -7z"/>
<path d="M156 3865 c-20 -21 -10 -45 20 -45 24 0 30 14 18 44 -8 20 -18 20
-38 1z"/>
<path d="M276 3865 c-20 -20 -20 -29 -2 -44 17 -14 88 -11 93 4 2 8 -31 34
-68 53 -4 1 -14 -4 -23 -13z"/>
<path d="M56 3852 c-8 -7 -13 -8 -41 -11 -21 -1 -22 -111 -1 -111 17 0 26 22
19 48 -3 14 4 29 20 46 14 14 22 28 18 31 -5 2 -11 1 -15 -3z"/>
<path d="M625 3790 c3 -5 8 -10 11 -10 2 0 4 5 4 10 0 6 -5 10 -11 10 -5 0 -7
-4 -4 -10z"/>
<path d="M2400 3700 c-18 -25 -19 -34 -10 -45 15 -18 31 -20 28 -2 -2 6 2 11
8 10 5 -1 11 14 12 33 3 42 -10 43 -38 4z"/>
<path d="M579 3698 c-1 -7 0 -21 1 -31 1 -12 -9 -22 -28 -29 -27 -10 -29 -14
-19 -35 13 -29 25 -29 38 1 7 14 22 27 34 30 28 7 38 41 18 61 -18 18 -43 20
-44 3z"/>
<path d="M251 3671 c-27 -24 -32 -34 -27 -55 3 -13 14 -27 25 -31 10 -3 26
-14 36 -25 24 -27 53 -25 60 3 3 12 2 47 -2 77 -7 49 -11 55 -33 57 -16 2 -38
-8 -59 -26z"/>
<path d="M2116 3666 c7 -18 19 -19 49 -6 19 8 19 9 -2 9 -12 1 -29 4 -37 7
-12 5 -15 2 -10 -10z"/>
<path d="M133 3649 c14 -8 22 -8 30 0 8 8 3 11 -18 11 -26 -1 -28 -2 -12 -11z"/>
<path d="M1900 3650 c-12 -8 -8 -9 15 -5 l30 5 -32 -15 c-49 -22 -52 -37 -6
-31 28 5 33 4 18 -3 -19 -9 -19 -10 -1 -10 11 -1 16 -6 13 -15 -5 -12 -1 -13
24 -4 17 6 33 8 36 4 4 -3 2 -6 -4 -6 -19 0 -79 -63 -66 -67 8 -3 11 -15 7
-31 -5 -26 -5 -26 10 -8 9 11 16 30 16 42 0 27 29 59 42 46 11 -11 -1 -44 -13
-36 -5 3 -9 -2 -9 -11 0 -10 6 -15 13 -12 11 4 11 -4 -2 -38 -8 -25 -23 -46
-33 -48 -10 -3 -17 -13 -17 -24 1 -16 2 -16 6 0 2 9 13 17 24 17 20 0 66 81
55 98 -3 6 1 13 10 16 9 3 12 2 8 -5 -3 -6 3 -5 15 3 12 7 21 20 22 28 0 10 3
8 9 -5 8 -19 9 -19 9 3 1 12 -3 22 -9 22 -5 0 -10 10 -9 23 0 21 1 21 9 2 7
-16 9 -17 9 -3 1 9 -9 29 -22 44 -20 23 -32 27 -93 31 -41 2 -75 0 -84 -7z
m135 -80 c-3 -5 -11 -10 -16 -10 -6 0 -7 5 -4 10 3 6 11 10 16 10 6 0 7 -4 4
-10z"/>
<path d="M2330 3607 c0 -9 9 -21 20 -27 11 -6 20 -8 20 -5 0 3 -9 15 -20 27
-17 18 -20 19 -20 5z"/>
<path d="M1870 3580 c-8 -5 -10 -10 -5 -10 6 0 17 5 25 10 8 5 11 10 5 10 -5
0 -17 -5 -25 -10z"/>
<path d="M1865 3550 c-8 -13 15 -13 35 0 12 8 11 10 -7 10 -12 0 -25 -4 -28
-10z"/>
<path d="M564 3525 c-9 -22 2 -41 25 -48 17 -4 21 -1 21 17 0 37 -35 61 -46
31z"/>
<path d="M1745 3500 c-3 -5 -2 -10 4 -10 5 0 13 5 16 10 3 6 2 10 -4 10 -5 0
-13 -4 -16 -10z"/>
<path d="M390 3470 c0 -5 7 -10 15 -10 8 0 15 5 15 10 0 6 -7 10 -15 10 -8 0
-15 -4 -15 -10z"/>
<path d="M1880 3463 c-38 -13 -81 -35 -76 -40 2 -3 19 2 37 11 18 9 38 16 45
16 7 0 16 5 19 10 7 11 -1 12 -25 3z"/>
<path d="M1877 3433 c-4 -3 -7 -11 -7 -17 0 -6 5 -5 12 2 6 6 9 14 7 17 -3 3
-9 2 -12 -2z"/>
<path d="M2550 3359 c0 -5 5 -7 10 -4 6 3 10 8 10 11 0 2 -4 4 -10 4 -5 0 -10
-5 -10 -11z"/>
<path d="M1642 3310 c-7 -11 -21 -20 -31 -20 -19 0 -67 -67 -56 -78 3 -3 5 0
5 6 0 19 30 14 31 -5 0 -14 2 -15 6 -3 3 8 15 27 25 43 11 15 16 27 13 27 -4
0 1 7 9 16 9 8 16 20 16 25 0 14 -4 11 -18 -11z"/>
<path d="M2846 3301 c-5 -7 -6 -13 -5 -14 2 -2 12 -9 22 -16 20 -16 23 -2 4
24 -10 13 -16 15 -21 6z"/>
<path d="M1625 3200 c-3 -6 1 -7 9 -4 18 7 21 14 7 14 -6 0 -13 -4 -16 -10z"/>
<path d="M688 3185 c-3 -4 -3 -19 1 -33 4 -15 4 -38 0 -52 -4 -14 -7 -34 -8
-44 -1 -29 19 -6 37 41 22 58 21 87 -3 91 -12 2 -24 0 -27 -3z"/>
<path d="M374 3173 l-40 -4 2 -77 c4 -128 19 -153 80 -138 21 6 24 12 24 51 0
25 5 53 11 63 15 24 -1 107 -21 108 -8 0 -33 -1 -56 -3z"/>
<path d="M103 3154 c-8 -21 6 -187 17 -198 8 -8 68 -12 75 -4 2 2 6 51 10 111
l7 107 -51 0 c-38 0 -53 -4 -58 -16z"/>
<path d="M487 3106 c-6 -15 1 -26 15 -26 4 0 8 9 8 20 0 23 -15 27 -23 6z"/>
<path d="M1295 3100 c-10 -16 -24 -70 -19 -70 8 0 36 72 31 77 -3 2 -8 -1 -12
-7z"/>
<path d="M3585 3010 c-4 -6 2 -20 14 -31 21 -19 21 -19 21 -1 0 25 -25 48 -35
32z"/>
<path d="M3101 2987 c-15 -19 -3 -49 18 -45 9 2 16 13 16 27 0 29 -17 37 -34
18z"/>
<path d="M676 2934 c-4 -14 -5 -29 -2 -31 3 -3 8 7 12 21 3 15 4 29 1 32 -2 3
-8 -7 -11 -22z"/>
<path d="M2801 2894 c0 -11 3 -14 6 -6 3 7 2 16 -1 19 -3 4 -6 -2 -5 -13z"/>
<path d="M3340 2856 c0 -9 7 -16 16 -16 9 0 14 5 12 12 -6 18 -28 21 -28 4z"/>
<path d="M2941 2807 c-8 -11 -6 -18 9 -32 11 -10 25 -36 32 -57 8 -26 21 -44
39 -54 15 -7 31 -23 34 -34 4 -11 16 -30 28 -41 l22 -20 -23 -17 c-28 -21 -19
-35 13 -20 14 6 21 16 18 24 -3 8 0 14 6 14 6 0 18 11 27 25 29 44 4 79 -142
203 -31 25 -47 28 -63 9z"/>
<path d="M668 2679 c-10 -6 -18 -17 -18 -24 0 -20 39 -19 47 1 8 22 -8 35 -29
23z"/>
<path d="M854 2658 c-5 -7 -7 -36 -7 -64 1 -45 -2 -53 -23 -65 -30 -15 -39
-45 -25 -82 12 -32 43 -36 69 -8 56 62 63 74 57 105 -4 17 -13 41 -21 53 -8
12 -14 34 -14 48 0 26 -23 35 -36 13z"/>
<path d="M290 2636 c-5 -15 -10 -41 -10 -58 0 -25 3 -28 14 -19 18 15 30 81
17 94 -7 7 -13 2 -21 -17z"/>
<path d="M0 2545 l0 -105 25 0 c16 0 36 11 50 28 l24 27 7 -32 c4 -23 12 -33
25 -33 10 0 21 -5 24 -10 4 -7 19 -4 41 10 20 11 42 20 50 20 18 0 39 43 31
64 -4 9 -17 16 -31 16 -17 0 -26 7 -30 25 -5 19 -15 26 -45 31 -28 4 -42 14
-55 35 -15 26 -23 29 -67 29 l-49 0 0 -105z"/>
<path d="M567 2591 c-26 -28 -52 -115 -40 -134 4 -6 10 -48 14 -92 4 -44 11
-98 16 -120 l8 -40 23 23 c12 12 22 33 22 46 0 13 7 43 15 66 17 47 13 74 -15
105 -10 11 -21 37 -24 58 -6 32 -3 41 19 61 30 28 32 42 6 49 -13 3 -28 -5
-44 -22z"/>
<path d="M992 2565 c0 -16 2 -22 5 -12 2 9 2 23 0 30 -3 6 -5 -1 -5 -18z"/>
<path d="M3167 2510 c9 -16 22 -30 27 -30 6 0 6 -4 -1 -11 -7 -7 -20 -4 -44 9
-19 11 -53 22 -76 26 -38 5 -43 4 -43 -13 0 -10 -7 -24 -15 -31 -15 -13 -20
-56 -9 -84 5 -13 17 -15 63 -10 31 4 67 13 81 22 14 9 39 15 57 14 23 -2 35 3
42 17 17 30 13 55 -9 69 -11 7 -20 21 -20 32 0 16 -7 20 -36 20 l-35 0 18 -30z"/>
<path d="M3837 2299 c-10 -6 -46 -10 -80 -9 -34 1 -91 2 -127 3 -85 2 -156
-18 -164 -46 -5 -19 32 -88 53 -102 4 -2 31 3 61 12 84 23 85 22 82 -14 -3
-24 1 -33 12 -33 8 0 19 6 23 14 4 7 19 19 32 26 26 13 26 13 58 -37 10 -17
14 -14 52 27 23 24 39 50 37 57 -3 6 -1 26 4 42 11 40 -15 76 -43 60z"/>
<path d="M867 2293 c-11 -21 -16 -62 -8 -68 12 -7 31 26 31 54 0 20 -15 29
-23 14z"/>
<path d="M467 2260 c-22 -32 -22 -63 -1 -58 27 5 39 33 28 59 l-10 23 -17 -24z"/>
<path d="M3215 2270 c-3 -5 1 -10 9 -10 9 0 16 5 16 10 0 6 -4 10 -9 10 -6 0
-13 -4 -16 -10z"/>
<path d="M651 2224 c-7 -24 -7 -43 -1 -55 16 -29 12 -59 -8 -59 -23 0 -52 -50
-52 -90 0 -17 -4 -40 -10 -50 -22 -41 18 -69 42 -30 7 11 21 20 31 20 34 0 57
20 57 50 0 15 5 30 12 32 21 7 28 179 8 203 -7 8 -25 15 -41 15 -24 0 -30 -5
-38 -36z"/>
<path d="M140 2225 c-7 -9 -10 -18 -7 -21 10 -11 37 5 37 21 0 19 -14 19 -30
0z"/>
<path d="M3993 2183 c-44 -6 -43 -30 2 -39 46 -8 100 12 84 32 -11 14 -23 15
-86 7z"/>
<path d="M1161 2141 c0 -14 -8 -33 -17 -43 -12 -13 -17 -34 -15 -76 1 -38 -4
-64 -13 -77 -14 -18 -22 -75 -12 -75 3 0 16 4 29 9 42 16 58 -5 47 -62 -9 -44
-7 -52 18 -90 31 -49 56 -73 95 -93 35 -19 34 -27 -5 -57 l-32 -25 21 -79 c12
-43 21 -102 21 -132 1 -29 4 -56 7 -59 3 -3 30 -7 60 -8 31 -1 66 -9 80 -18
13 -9 31 -16 39 -16 17 0 62 -51 71 -81 5 -15 10 -18 18 -10 21 21 28 11 10
-13 -10 -13 -21 -22 -25 -20 -10 6 -65 -22 -108 -56 -32 -25 -203 -112 -319
-162 -60 -26 -191 -68 -213 -68 -27 0 -30 -16 -12 -71 30 -91 105 -202 146
-215 10 -3 25 -20 32 -38 8 -19 33 -46 57 -62 57 -39 64 -64 15 -57 -37 5 -51
-12 -18 -20 16 -4 16 -5 0 -6 -10 0 -18 -5 -18 -11 0 -14 -57 -13 -66 1 -4 8
-9 7 -15 -2 -5 -8 -3 -17 4 -21 12 -7 -19 -12 -53 -9 -13 2 -13 1 0 -8 12 -8
12 -13 3 -22 -10 -10 -10 -16 1 -28 13 -14 10 -16 -27 -15 -23 0 -47 -5 -54
-11 -12 -13 -73 -8 -73 6 0 5 -7 9 -16 9 -9 0 -12 -5 -8 -12 5 -7 3 -8 -6 -3
-7 4 -16 2 -21 -6 -6 -11 -11 -11 -21 -1 -9 9 -9 12 0 12 7 0 12 7 12 15 0 8
-7 15 -15 15 -8 0 -15 -4 -15 -10 0 -5 -10 -10 -22 -9 -22 0 -22 1 -3 9 19 8
19 9 -1 9 -12 1 -24 -6 -28 -14 -3 -9 0 -15 9 -15 16 0 20 -27 6 -49 -5 -7
-13 -11 -19 -7 -5 3 -13 -1 -16 -10 -4 -9 -2 -13 5 -8 7 4 10 1 7 -6 -5 -16
-48 -24 -48 -10 0 6 -7 10 -15 10 -15 0 -18 7 -18 43 0 13 -5 16 -21 11 -21
-7 -21 -6 -2 15 15 16 16 21 5 21 -8 0 -20 -5 -27 -12 -7 -7 -12 -9 -12 -5 0
4 -9 -2 -20 -13 -24 -24 -16 -54 12 -47 14 4 17 2 9 -7 -7 -9 -7 -16 0 -23 8
-8 8 -13 0 -17 -6 -4 -3 -14 10 -27 12 -12 18 -27 14 -39 -3 -10 0 -28 7 -40
13 -20 19 -20 326 -20 228 1 312 4 312 12 0 9 3 9 12 0 7 -7 35 -11 63 -11 27
1 42 3 33 6 -10 2 -18 9 -18 14 0 10 61 38 104 48 44 10 46 31 2 24 -51 -8
-44 3 14 22 50 17 66 40 33 47 -12 3 -9 6 10 10 21 4 27 2 23 -8 -3 -8 0 -11
9 -7 8 3 12 9 9 14 -3 5 0 9 5 9 6 0 11 -21 11 -49 0 -44 -4 -53 -32 -76 -28
-21 -29 -24 -8 -15 14 6 33 13 43 16 9 4 17 15 17 25 0 11 7 19 15 19 8 0 15
-4 15 -10 0 -16 17 -11 24 7 4 9 1 20 -5 24 -8 5 -5 11 10 19 19 10 25 8 41
-13 11 -13 34 -27 52 -31 25 -5 30 -9 18 -16 -8 -5 -12 -12 -8 -15 3 -3 12 0
19 7 18 17 203 23 193 7 -4 -6 -19 -8 -36 -5 -20 4 -28 2 -26 -6 2 -6 15 -13
28 -15 30 -4 36 -11 23 -24 -7 -7 -13 -7 -17 -1 -6 10 -76 -8 -76 -20 0 -5
511 -8 1135 -8 l1135 0 0 591 0 591 -32 -8 c-50 -12 -73 -8 -156 24 -195 76
-259 87 -602 112 -143 10 -178 15 -187 24 -3 3 -13 0 -21 -7 -13 -10 -14 -9
-7 3 8 13 7 13 -9 1 -15 -12 -19 -12 -32 7 -9 14 -26 22 -43 22 -15 0 -36 9
-46 20 -10 11 -21 18 -25 15 -4 -2 -20 -1 -36 4 -18 4 -38 3 -52 -5 -28 -14
-22 -19 51 -44 44 -15 55 -24 75 -61 40 -77 24 -182 -45 -302 -169 -292 -467
-460 -818 -460 -140 0 -205 17 -313 81 -142 85 -207 182 -219 328 -5 63 -3 77
22 133 l28 61 -21 73 c-11 39 -30 112 -42 161 -23 101 -32 116 -67 116 -52 0
-92 37 -93 84 0 16 -7 37 -15 46 -14 15 -13 20 11 43 33 33 50 34 75 5 l18
-23 1 22 c0 12 -4 32 -9 45 -5 13 -19 55 -31 93 -28 85 -32 90 -60 75 -12 -6
-33 -9 -46 -6 -57 15 -161 164 -174 249 -4 29 -8 41 -9 28z m184 -511 c3 -5
-1 -10 -9 -10 -9 0 -16 5 -16 10 0 6 4 10 9 10 6 0 13 -4 16 -10z m-795 -1430
c0 -5 -4 -10 -10 -10 -5 0 -10 5 -10 10 0 6 5 10 10 10 6 0 10 -4 10 -10z
m1015 -30 c-3 -5 -12 -10 -18 -10 -7 0 -6 4 3 10 19 12 23 12 15 0z m39 1 c3
-5 -1 -11 -9 -14 -9 -4 -12 -1 -8 9 6 16 10 17 17 5z m-224 -46 c-12 -15 -30
-12 -30 6 0 5 10 9 21 9 18 0 19 -2 9 -15z m585 -15 c-3 -5 -17 -10 -31 -10
-14 0 -22 4 -19 10 3 6 17 10 31 10 14 0 22 -4 19 -10z m-621 -41 c-8 -14 -24
-10 -24 6 0 9 6 12 15 9 8 -4 12 -10 9 -15z m631 3 c-3 -3 -11 0 -18 7 -9 10
-8 11 6 5 10 -3 15 -9 12 -12z"/>
<path d="M3170 2141 c-21 -14 -5 -25 36 -24 35 1 52 8 42 18 -11 11 -64 15
-78 6z"/>
<path d="M108 2103 c6 -2 18 -2 25 0 6 3 1 5 -13 5 -14 0 -19 -2 -12 -5z"/>
<path d="M444 2043 c-9 -21 -18 -54 -19 -73 -1 -19 -5 -43 -9 -52 -6 -13 -3
-20 10 -24 26 -10 114 -105 114 -124 -1 -41 -13 -60 -45 -66 -45 -8 -89 -55
-82 -86 22 -89 57 -132 57 -70 0 15 7 37 15 49 8 12 12 28 9 36 -6 18 9 29 45
33 14 2 43 6 63 10 30 5 39 3 44 -10 8 -21 19 -13 38 26 19 37 20 49 4 83 -10
22 -17 26 -39 21 -26 -5 -27 -4 -22 28 7 46 -14 57 -43 23 -30 -35 -42 -34
-60 6 -8 17 -19 39 -26 48 -9 13 -7 22 10 44 30 38 30 98 0 119 -33 24 -44 20
-64 -21z"/>
<path d="M1330 2045 c7 -9 15 -13 17 -11 7 7 -7 26 -19 26 -6 0 -6 -6 2 -15z"/>
<path d="M3235 1902 c-104 -1 -197 -5 -205 -8 -21 -8 52 -35 120 -43 58 -7 88
-20 109 -45 12 -14 15 -13 31 6 19 24 56 19 46 -7 -8 -21 28 -37 69 -29 21 4
35 2 35 -4 0 -5 15 -17 34 -26 26 -12 65 -16 158 -16 139 0 162 8 127 46 -20
21 -20 23 -4 47 9 14 15 36 13 49 -3 23 -5 23 -133 25 -71 1 -148 3 -170 5
-22 2 -125 2 -230 0z m240 -112 c-3 -5 -10 -10 -16 -10 -5 0 -9 5 -9 10 0 6 7
10 16 10 8 0 12 -4 9 -10z"/>
<path d="M3865 1890 c-8 -12 3 -50 14 -50 4 0 13 11 19 24 9 20 8 25 -4 30
-21 8 -22 8 -29 -4z"/>
<path d="M4043 1863 c-26 -5 -28 -12 -10 -37 19 -26 51 -17 55 17 3 28 1 29
-45 20z"/>
<path d="M0 1739 c0 -32 4 -59 9 -59 5 0 20 14 32 31 17 25 19 35 11 53 -6 13
-20 26 -31 29 -20 5 -21 1 -21 -54z"/>
<path d="M1046 1748 c-8 -34 11 -46 24 -14 13 35 13 36 -4 36 -7 0 -16 -10
-20 -22z"/>
<path d="M884 1735 c-9 -22 5 -38 22 -24 18 15 18 25 -1 33 -9 3 -18 -1 -21
-9z"/>
<path d="M167 1724 c-14 -14 6 -24 45 -24 35 0 39 2 28 15 -12 15 -61 21 -73
9z"/>
<path d="M300 1715 c-7 -8 -16 -13 -20 -10 -5 3 -12 0 -16 -6 -8 -14 14 -29
43 -29 22 0 40 31 28 50 -9 14 -21 12 -35 -5z"/>
<path d="M793 1655 c-18 -13 -21 -22 -16 -48 8 -42 20 -57 48 -57 57 0 67 20
40 84 -17 40 -37 45 -72 21z"/>
<path d="M91 1516 c-6 -7 -15 -24 -20 -39 -6 -15 -20 -31 -31 -35 l-21 -8 21
-19 c19 -17 23 -18 48 -3 19 11 34 13 50 7 19 -7 22 -5 22 15 0 12 9 31 20 41
38 35 20 55 -48 53 -17 -1 -36 -6 -41 -12z"/>
<path d="M302 1523 c-27 -4 -37 -13 -60 -54 -16 -30 -36 -52 -50 -55 -21 -6
-22 -8 -7 -30 8 -13 15 -30 15 -38 0 -8 13 -15 34 -18 19 -2 32 0 30 4 -3 4 1
8 10 8 8 0 33 12 56 27 44 29 80 86 80 127 0 35 -19 40 -108 29z m-22 -153 c0
-5 -5 -10 -11 -10 -5 0 -7 5 -4 10 3 6 8 10 11 10 2 0 4 -4 4 -10z"/>
<path d="M676 1522 c-3 -6 -1 -14 5 -17 15 -10 25 3 12 16 -7 7 -13 7 -17 1z"/>
<path d="M1012 1468 c-10 -44 -9 -54 5 -79 10 -16 20 -29 23 -29 8 0 40 73 40
91 0 8 -13 26 -28 40 l-28 27 -12 -50z"/>
<path d="M540 1488 c-30 -32 -25 -48 14 -48 41 0 46 6 39 43 -6 33 -25 35 -53
5z"/>
<path d="M710 1485 c0 -24 41 -55 73 -55 8 0 20 -7 27 -15 14 -17 29 -19 48
-6 10 6 11 13 1 34 -12 28 -41 43 -59 32 -6 -4 -25 3 -44 14 -42 27 -46 26
-46 -4z"/>
<path d="M598 1445 c-3 -3 -3 -15 -1 -26 7 -26 38 -21 38 6 0 19 -25 32 -37
20z"/>
<path d="M885 1410 c3 -5 8 -10 11 -10 2 0 4 5 4 10 0 6 -5 10 -11 10 -5 0 -7
-4 -4 -10z"/>
<path d="M4040 1242 c0 -7 4 -11 9 -7 5 3 17 -2 25 -11 15 -14 16 -13 16 8 0
18 -6 23 -25 23 -14 0 -25 -6 -25 -13z"/>
<path d="M2580 1110 c0 -5 5 -10 10 -10 6 0 10 5 10 10 0 6 -4 10 -10 10 -5 0
-10 -4 -10 -10z"/>
<path d="M671 851 c-16 -10 -41 -58 -33 -65 11 -12 24 -5 18 9 -4 11 3 19 19
25 25 9 32 24 17 34 -4 2 -14 1 -21 -3z"/>
<path d="M10 743 c0 -22 18 -43 38 -43 9 0 12 9 10 28 -4 33 -48 47 -48 15z"/>
<path d="M160 655 c0 -15 4 -24 10 -20 6 3 10 12 10 20 0 8 -4 17 -10 20 -6 4
-10 -5 -10 -20z"/>
<path d="M920 280 c0 -5 5 -10 10 -10 6 0 10 5 10 10 0 6 -4 10 -10 10 -5 0
-10 -4 -10 -10z"/>
<path d="M526 272 c-3 -6 -1 -14 5 -17 14 -9 20 -2 10 14 -6 8 -11 9 -15 3z"/>
<path d="M860 260 c0 -15 7 -20 25 -20 14 0 25 4 25 8 0 5 -11 14 -25 20 -22
10 -25 9 -25 -8z"/>
<path d="M346 200 c-3 -18 -6 -41 -6 -52 0 -11 -7 -26 -16 -35 -10 -11 -13
-25 -8 -45 4 -21 2 -33 -7 -39 -11 -7 -11 -9 -1 -9 7 0 10 -5 7 -10 -4 -6 18
-10 59 -10 73 0 81 9 47 51 -19 25 -30 54 -35 92 -2 12 -10 37 -18 56 l-15 33
-7 -32z"/>
<path d="M1620 120 c0 -5 5 -10 10 -10 6 0 10 5 10 10 0 6 -4 10 -10 10 -5 0
-10 -4 -10 -10z"/>
<path d="M1466 101 c-3 -5 0 -13 7 -19 15 -13 42 1 33 17 -9 13 -33 15 -40 2z"/>
<path d="M1438 59 c-10 -10 -15 -19 -12 -19 13 0 44 21 44 30 0 15 -13 11 -32
-11z"/>
<path d="M1830 54 c0 -8 5 -12 10 -9 6 4 8 11 5 16 -9 14 -15 11 -15 -7z"/>
<path d="M1378 33 c7 -3 16 -2 19 1 4 3 -2 6 -13 5 -11 0 -14 -3 -6 -6z"/>
<path d="M1425 10 c-3 -5 1 -10 9 -10 8 0 18 5 21 10 3 6 -1 10 -9 10 -8 0
-18 -4 -21 -10z"/>
<path d="M1758 3 c6 -2 18 -2 25 0 6 3 1 5 -13 5 -14 0 -19 -2 -12 -5z"/>
</g>
</svg>
